<?xml version="1.0" encoding="UTF-8" standalone="no"?>
<!DOCTYPE svg PUBLIC "-//W3C//DTD SVG 1.1//EN" "http://www.w3.org/Graphics/SVG/1.1/DTD/svg11.dtd">
<svg width="100%" height="100%" viewBox="0 0 89 70" version="1.1" xmlns="http://www.w3.org/2000/svg" xmlns:xlink="http://www.w3.org/1999/xlink" xml:space="preserve" xmlns:serif="http://www.serif.com/" fill="#5d5d5d" style="fill-rule:evenodd;clip-rule:evenodd;stroke-linejoin:round;stroke-miterlimit:2;">
    <g transform="matrix(1,0,0,1,-5.5082,-15.4357)">
        <g id="path21" transform="matrix(0.0397822,0,0,0.0397822,57.3002,19.9097)">
            <path d="M-176.152,915.791C4.028,883.961 152.846,857.623 154.556,857.26L157.663,856.601L-12.444,654.264C-106.003,542.978 -182.552,451.494 -182.552,450.967C-182.552,449.968 -6.901,-33.735 -5.914,-35.456C-5.584,-36.031 113.952,170.343 283.848,464.81C442.908,740.495 574.045,967.798 575.264,969.928L577.48,973.801L36.864,973.732L-503.752,973.662L-176.152,915.791L-176.152,915.791ZM-113.651,1624.66C-195.944,1619.38 -243.805,1572.52 -256.488,1484.81C-259.862,1461.48 -259.875,1460.87 -260.22,1309.4L-260.555,1162.8L-187.714,1162.8L-187.427,1304.6C-187.168,1432.4 -187.006,1447.39 -185.784,1456.38C-180.826,1492.86 -170.953,1517.4 -154.146,1535.01C-140.695,1549.11 -124.948,1557.36 -103.151,1561.74C-92.867,1563.81 -63.613,1563.81 -54.237,1561.75C-32.138,1556.88 -14.426,1547.27 1.198,1531.65C19.007,1513.85 32.181,1488.59 38.556,1460.03L40.704,1450.4L40.943,1307.4L41.183,1164.4L115.549,1164.4L115.549,1614L78.749,1614L41.949,1614L41.949,1578.34C41.949,1554.1 41.683,1542.76 41.12,1542.95C40.665,1543.1 38.775,1545.99 36.92,1549.37C24.239,1572.5 3.11,1593.65 -20.042,1606.39C-47.794,1621.66 -75.625,1627.1 -113.651,1624.66L-113.651,1624.66ZM721.623,1624.29C692.574,1622.11 661.987,1612.12 636.987,1596.66C584.294,1564.06 553.116,1510.34 543.987,1436.4C540.828,1410.82 540.449,1376.45 543.085,1354.71C548.975,1306.13 568.063,1258.44 595.245,1224.4C602.214,1215.67 618.022,1199.87 626.749,1192.9C650.315,1174.08 677.881,1160.92 707.149,1154.52C724.201,1150.79 754.231,1149.04 772.349,1150.72C817.861,1154.94 859.574,1176.37 887.925,1210.09C916.729,1244.36 932.561,1292.24 934.583,1351.2C934.9,1360.44 934.977,1376.64 934.754,1387.2L934.349,1406.4L774.949,1406.6L615.549,1406.81L615.549,1413.92C615.549,1435.57 620.813,1460.24 629.915,1481.22C637.763,1499.32 651.273,1519.08 662.335,1528.64C685.016,1548.25 712.774,1559.98 743.149,1562.81C754.411,1563.85 783.114,1562.75 795.949,1560.78C832.567,1555.15 867.38,1540.79 895.494,1519.71C898.802,1517.23 901.967,1514.91 902.529,1514.56C903.35,1514.05 903.544,1520.53 903.523,1547.76L903.497,1581.6L895.965,1586.26C864.161,1605.93 827.726,1618.56 789.149,1623.29C777.637,1624.7 735.392,1625.33 721.624,1624.29L721.623,1624.29ZM860.349,1338.89C860.349,1302.61 845.063,1262.32 823.432,1241.57C807.995,1226.76 789.333,1217.71 767.149,1214.28C756.653,1212.65 734.532,1213.28 723.467,1215.52C700.074,1220.24 680.726,1230.53 663.85,1247.2C646.089,1264.75 632.773,1286.07 624.398,1310.36C621.387,1319.09 617.865,1333.43 616.772,1341.4L616.251,1345.2L860.349,1345.2L860.349,1338.89ZM-1301.88,1613C-1301.7,1612.45 -1247.57,1470.25 -1181.6,1297L-1061.65,982.007L-1023.11,982.004L-984.573,982.002L-981.375,990.202C-971.604,1015.26 -741.251,1613.32 -741.251,1613.63C-741.251,1613.83 -759.701,1614 -782.251,1614L-823.251,1613.99L-856.451,1525.59L-889.651,1437.2L-1023.33,1437.2L-1157.01,1437.2L-1158.17,1440.2C-1158.81,1441.85 -1172.99,1481.62 -1189.69,1528.59L-1220.05,1613.97L-1261.14,1613.99C-1293.66,1614 -1302.15,1613.79 -1301.88,1613L-1301.88,1613ZM-914.051,1369.75C-914.051,1369.61 -936.394,1309.04 -963.701,1235.15C-1014.79,1096.91 -1017.65,1088.59 -1021.68,1066.4C-1023.58,1056 -1024.53,1055.7 -1025.66,1065.2C-1026.46,1071.99 -1029.94,1087.18 -1032.63,1095.6C-1033.96,1099.78 -1056.96,1162.92 -1083.75,1235.92C-1110.54,1308.91 -1132.45,1368.94 -1132.45,1369.32C-1132.45,1369.69 -1083.31,1370 -1023.25,1370C-963.191,1370 -914.051,1369.89 -914.051,1369.75L-914.051,1369.75ZM-716.451,1602.49L-716.451,1590.98L-583.267,1407.89L-450.082,1224.8L-570.667,1224.4L-691.251,1224L-691.461,1193.4L-691.67,1162.8L-342.851,1162.8L-342.851,1183.47L-476.051,1367.56C-549.311,1468.81 -609.251,1551.82 -609.251,1552.02C-609.251,1552.23 -550.031,1552.4 -477.651,1552.4L-346.051,1552.4L-346.051,1614L-531.251,1614L-716.451,1614L-716.451,1602.49ZM260.882,1613.47C260.589,1613.17 260.349,1511.65 260.349,1387.87L260.349,1162.8L333.149,1162.8L333.149,1209.2C333.149,1234.72 333.459,1255.6 333.838,1255.6C334.218,1255.6 335.989,1251.42 337.775,1246.32C345.959,1222.92 360.152,1201.06 378.437,1183.69C394.909,1168.04 413.735,1158.67 435.949,1155.09C442.189,1154.09 447.469,1153.89 459.949,1154.22C475.622,1154.63 483.816,1155.77 493.349,1158.89L496.349,1159.87L496.349,1235.43L487.749,1231.13C472.557,1223.53 457.568,1220.52 439.549,1221.45C427.822,1222.06 420.124,1223.57 410.749,1227.09C391.458,1234.33 375.811,1247.11 364.878,1264.55C349.05,1289.8 337.761,1322.26 334.432,1352.09C333.834,1357.44 333.482,1401.05 333.341,1487L333.134,1614L297.275,1614C277.552,1614 261.175,1613.76 260.882,1613.47L260.882,1613.47ZM-824.952,854.087C-824.952,853.803 -744.798,714.662 -646.832,544.885L-468.712,236.201L-261.134,62.001C-146.966,-33.809 -53.249,-112.316 -52.873,-112.459C-52.497,-112.602 -53.999,-108.822 -56.211,-104.059C-58.422,-99.296 -159.852,118.261 -281.611,379.401L-502.991,854.201L-663.971,854.403C-752.511,854.514 -824.952,854.372 -824.952,854.087L-824.952,854.087Z"/>
        </g>
    </g>
</svg>
