<?xml version="1.0" encoding="UTF-8" standalone="no"?>
<!DOCTYPE svg PUBLIC "-//W3C//DTD SVG 1.1//EN" "http://www.w3.org/Graphics/SVG/1.1/DTD/svg11.dtd">
<svg width="100%" height="100%" viewBox="0 0 2757 1891" version="1.1" xmlns="http://www.w3.org/2000/svg" xmlns:xlink="http://www.w3.org/1999/xlink" xml:space="preserve" xmlns:serif="http://www.serif.com/" style="fill-rule:evenodd;clip-rule:evenodd;stroke-linejoin:round;stroke-miterlimit:2;" fill="#5d5d5d">
    <g>
        <g transform="matrix(1,0,0,1,599.53,-0.00350159)">
            <path d="M1057.1,369.2L1107.9,369.2L1252.7,224.4L1259.8,162.9C990.3,-75 579,-49.3 341.1,220.2C275,295 227.1,384.1 200.9,480.5C217,473.9 234.9,472.8 251.7,477.5L541.3,429.7C541.3,429.7 556,405.3 563.7,406.8C692.5,265.3 909.3,248.8 1058.1,369.2L1057.1,369.2Z" style="fill-rule:nonzero;"/>
            <path d="M1459,480.5C1425.7,357.9 1357.4,247.7 1262.4,163.5L1059.2,366.7C1145,436.8 1193.9,542.5 1191.8,653.3L1191.8,689.4C1291.7,689.4 1372.7,770.4 1372.7,870.3C1372.7,970.2 1291.7,1051.2 1191.8,1051.2L830,1051.2L793.9,1087.8L793.9,1304.8L830,1340.9L1191.8,1340.9C1451.6,1342.9 1663.9,1133.9 1665.9,874.1C1667.1,716.3 1589.4,568.7 1459,480.5Z" style="fill-rule:nonzero;"/>
            <path d="M467.7,1338.6L829.5,1338.6L829.5,1049L467.7,1049C441.9,1049 416.5,1043.4 393,1032.7L342.2,1048.5L196.4,1193.3L183.7,1244.1C265.4,1305.9 365.2,1339.1 467.7,1338.6Z" style="fill-rule:nonzero;"/>
            <path d="M467.7,399.2C207.8,400.7 -1.5,612.6 0,872.5C0.9,1017.6 68.6,1154.2 183.7,1242.6L393.5,1032.8C302.5,991.7 262,884.5 303.1,793.5C344.2,702.5 451.4,662 542.4,703.1C582.5,721.2 614.6,753.4 632.8,793.5L842.6,583.7C753.4,466.9 614.6,398.6 467.7,399.2Z" style="fill-rule:nonzero;"/>
        </g>
        <g transform="matrix(0.403342,0,0,0.403342,-868.42,1322.23)">
            <path d="M2629.1,1136.4C2503.2,1138 2382.2,1088.3 2293.8,998.7C2202.5,912.9 2151.5,792.7 2153.1,667.4C2151.6,542.1 2202.6,422 2293.8,336.1C2381.8,245.6 2502.9,194.9 2629.1,195.9C2749.3,194.3 2865.2,241 2950.7,325.5L2860.3,417.5C2798.4,357.6 2715.2,324.8 2629.1,326C2538.8,324.9 2452.1,361.8 2390.3,427.6C2326.1,491.3 2290.7,578.5 2292.2,668.9C2291.4,758.3 2326.8,844.2 2390.3,907.2C2521.1,1037.6 2732,1040.1 2865.9,912.8C2905.8,869.2 2930.2,813.6 2935.5,754.8L2630.6,754.8L2630.6,624.8L3062,624.8C3066.2,651 3067.9,677.5 3067.1,704.1C3072.5,815 3032.3,923.3 2955.8,1003.9C2870.7,1092.4 2751.9,1140.6 2629.1,1136.4ZM3632.1,1050C3511.8,1165.3 3322,1165.3 3201.7,1050C3143.4,993.5 3111.6,915.2 3113.8,834.1C3111.6,753 3143.5,674.7 3201.7,618.2C3322.1,503.2 3511.7,503.2 3632.1,618.2C3690.3,674.7 3722.2,753 3720,834.1C3722.1,915.3 3690,993.6 3631.6,1050L3632.1,1050ZM3296.7,965.2C3358.8,1031.6 3463,1035 3529.4,972.8C3532,970.3 3534.6,967.8 3537,965.2C3570.9,930.1 3589.2,882.9 3587.8,834.1C3589.3,785.2 3571,737.7 3537,702.5C3473.1,635.9 3367.3,633.6 3300.6,697.5C3298.9,699.1 3297.2,700.8 3295.6,702.5C3261.6,737.7 3243.3,785.2 3244.8,834.1C3243.5,882.9 3262,930.2 3296.1,965.2L3296.7,965.2ZM4293.6,1050C4173.3,1165.3 3983.5,1165.3 3863.2,1050C3804.9,993.5 3773.1,915.2 3775.3,834.1C3773.1,753 3805,674.7 3863.2,618.2C3983.5,502.9 4173.3,502.9 4293.6,618.2C4351.8,674.7 4383.7,753 4381.5,834.1C4383.8,915.2 4351.9,993.5 4293.6,1050ZM3958.3,965.2C4020.4,1031.6 4124.6,1035 4191,972.8C4193.6,970.3 4196.2,967.8 4198.6,965.2C4232.5,930.1 4250.8,882.9 4249.4,834.1C4250.9,785.2 4232.6,737.7 4198.6,702.5C4134.7,635.9 4028.9,633.6 3962.3,697.5C3960.6,699.1 3958.9,700.8 3957.3,702.5C3923.3,737.7 3905,785.2 3906.5,834.1C3905.2,882.9 3923.7,930.2 3957.8,965.2L3958.3,965.2ZM4728.5,1407.7C4667.6,1409.6 4607.9,1390.6 4559.3,1353.8C4516.2,1321.4 4482.2,1278.3 4460.7,1228.8L4576.5,1180.5C4589.1,1210.1 4608.8,1236.1 4633.9,1256.2C4660.7,1277.8 4694.4,1289.2 4728.9,1288.2C4773.1,1290.9 4816.3,1274.2 4847.3,1242.5C4877.9,1205.6 4893,1158.2 4889.5,1110.4L4889.5,1066.7L4884.9,1066.7C4845.6,1113.3 4786.7,1138.7 4725.9,1135.3C4648.8,1135.5 4575.1,1103.5 4522.7,1046.9C4465.9,990.8 4434.5,913.9 4435.8,834C4434.4,753.7 4465.8,676.3 4522.7,619.6C4575,562.8 4648.7,530.5 4725.9,530.7C4758.2,530.6 4790.2,537.8 4819.4,551.5C4844.7,562.5 4867.2,579 4885.5,599.8L4890.1,599.8L4890.1,551.5L5016.1,551.5L5016.1,1092.6C5022.8,1179.1 4993.6,1264.6 4935.3,1328.9C4879.8,1382 4805.3,1410.4 4728.5,1407.7ZM4737.7,1017.5C4781.6,1018.5 4823.7,999.8 4852.5,966.7C4883.8,930.8 4900.4,884.3 4898.7,836.6C4900.6,788.1 4884.1,740.8 4852.5,704C4823.7,670.8 4781.6,652.2 4737.7,653.2C4692.6,652.3 4649.3,670.8 4618.8,704C4585.2,739.5 4566.9,786.8 4568,835.6C4567,884 4585.2,930.8 4618.8,965.7C4649.1,999.2 4692.4,1018.1 4737.7,1017.5ZM5240.2,230L5240.2,1118.1L5107.6,1118.1L5107.6,230L5240.2,230ZM5604,1136.4C5523.7,1138.5 5446.2,1107 5390.1,1049.5C5333.2,992.5 5302.1,914.6 5304.2,834.1C5301.2,753.4 5331.1,674.9 5387,616.6C5439.8,561 5513.6,530.2 5590.2,531.7C5625.1,531.3 5659.6,538.1 5691.8,551.5C5720.8,563.2 5747.2,580.5 5769.5,602.3C5788.7,620.8 5805.7,641.4 5820.3,663.8C5832.1,682.7 5842.1,702.6 5850.3,723.2L5864,757.8L5457.6,925C5482.8,982.8 5540.9,1019.2 5603.9,1016.5C5664.8,1016.7 5721.3,984.8 5752.8,932.7L5854.4,1001.3C5828.5,1038.4 5795.3,1069.9 5756.8,1093.8C5711.2,1122.6 5658,1137.4 5604,1136.4ZM5434.3,824.9L5704.6,712.6C5696.3,692.8 5681.4,676.5 5662.4,666.4C5641.2,654.4 5617.2,648.3 5592.8,648.6C5551.5,649.7 5512.2,667 5483.6,696.9C5448.9,730.1 5430.8,777 5434.3,824.9Z" style="fill-rule:nonzero;"/>
            <g>
                <path d="M6558.7,1136.4C6327.5,1140.4 6136.9,956.2 6132.9,725C6132.8,719.4 6132.8,713.7 6133,708.1C6127.6,476.9 6310.7,285.2 6541.8,279.8C6547.4,279.7 6553.1,279.7 6558.7,279.7C6674.3,276.1 6785.3,325.5 6860,413.8L6786.8,484.9C6731.9,415.8 6647.3,377.1 6559.2,380.7C6474.7,378.8 6393,411.5 6333.1,471.1C6270.8,533.8 6237.5,619.6 6241.1,707.9C6237.4,796.2 6270.8,882 6333.1,944.7C6393,1004.4 6474.7,1037 6559.2,1035.1C6657.6,1036.2 6751.1,992.4 6813.2,916.2L6886.4,989.4C6848.1,1035.2 6800,1071.8 6745.7,1096.6C6687.1,1123.8 6623.2,1137.4 6558.7,1136.4Z" style="fill-rule:nonzero;"/>
                <rect x="6977.8" y="297.5" width="105.2" height="820.6" style="fill-rule:nonzero;"/>
                <path d="M7254.8,624.2C7369.5,510.3 7554.7,510.3 7669.4,624.2C7723.8,681.7 7753.1,758.5 7750.7,837.6C7753.1,916.7 7723.8,993.5 7669.4,1051C7554.7,1164.9 7369.5,1164.9 7254.8,1051C7200.4,993.5 7171.1,916.7 7173.5,837.6C7171.1,758.5 7200.3,681.7 7254.8,624.2ZM7333,985C7400.3,1056.1 7512.5,1059.2 7583.7,991.9C7586.1,989.7 7588.4,987.3 7590.6,985C7627.7,945.2 7647.3,892.1 7645,837.7C7647.4,783.3 7627.8,730.2 7590.6,690.4C7523.3,619.3 7411.1,616.2 7339.9,683.5C7337.5,685.7 7335.2,688.1 7333,690.4C7295.9,730.2 7276.3,783.3 7278.6,837.7C7276.5,892 7296.3,944.9 7333.5,984.5L7333,985Z" style="fill-rule:nonzero;"/>
                <path d="M8333.4,1118.1L8231.8,1118.1L8231.8,1040.4L8228.8,1040.4C8210.7,1069.9 8185.1,1094.1 8154.6,1110.5C8123,1128.8 8087,1138.5 8050.4,1138.4C7990.2,1142.5 7931.5,1118.9 7890.9,1074.4C7852.4,1025.7 7833.1,964.6 7836.5,902.7L7836.5,557.2L7941.7,557.2L7941.7,883.4C7941.7,988.1 7987.9,1040.4 8080.4,1040.4C8122.1,1041.7 8161.8,1022.8 8187.1,989.6C8214.4,955.1 8228.9,912.2 8228.3,868.2L8228.3,557.2L8333.5,557.2L8333.5,1118.1L8333.4,1118.1Z" style="fill-rule:nonzero;"/>
                <path d="M8690.6,1136.4C8618.4,1136.6 8549.7,1105.3 8502.6,1050.5C8449.9,992.3 8421.7,916.1 8423.8,837.6C8421.7,759.1 8449.9,682.9 8502.6,624.7C8549.7,570 8618.4,538.6 8690.6,538.8C8730.6,538.2 8770.1,547.6 8805.4,566.2C8836.5,581.8 8862.8,605.5 8881.6,634.8L8886.2,634.8L8881.6,557.1L8881.6,297.5L8986.8,297.5L8986.8,1118.1L8885.2,1118.1L8885.2,1040.4L8880.6,1040.4C8861.8,1069.7 8835.5,1093.4 8804.4,1109C8769.4,1127.4 8730.3,1136.9 8690.6,1136.4ZM8707.9,1040.4C8756,1041.1 8802.1,1021.1 8834.4,985.5C8870.1,944.8 8888.4,891.7 8885.2,837.6C8888.4,783.6 8870.1,730.4 8834.4,689.7C8770.6,619.5 8662,614.4 8591.8,678.3C8587.8,681.9 8584,685.8 8580.4,689.7C8544.6,730.1 8526.3,783.1 8529.6,837C8526.3,890.9 8544.6,943.9 8580.4,984.3C8612.8,1020.7 8659.3,1041.1 8707.9,1040.4Z" style="fill-rule:nonzero;"/>
            </g>
        </g>
    </g>
</svg>
