<?xml version="1.0" encoding="utf-8"?>
<!-- Svg Vector Icons : http://www.onlinewebfonts.com/icon -->
<!DOCTYPE svg PUBLIC "-//W3C//DTD SVG 1.1//EN" "http://www.w3.org/Graphics/SVG/1.1/DTD/svg11.dtd">
<svg version="1.1" xmlns="http://www.w3.org/2000/svg" xmlns:xlink="http://www.w3.org/1999/xlink" x="0px" y="0px" viewBox="0 0 1000 1000" enable-background="new 0 0 1000 1000" xml:space="preserve" fill="#5d5d5d">
<metadata> Svg Vector Icons : http://www.onlinewebfonts.com/icon </metadata>
<g><path d="M405.7,110.7c0,25.9-21,46.9-46.9,46.9c-25.9,0-46.9-21-46.9-46.9c0-25.9,21-46.9,46.9-46.9C384.7,63.8,405.7,84.8,405.7,110.7z"/><path d="M548.2,56.9c0,25.9-21,46.9-46.9,46.9c-25.9,0-46.9-21-46.9-46.9c0-25.9,21-46.9,46.9-46.9C527.1,10,548.2,31,548.2,56.9z"/><path d="M685.5,110.7c0,25.9-21,46.9-46.9,46.9c-25.9,0-46.9-21-46.9-46.9c0-25.9,21-46.9,46.9-46.9C664.5,63.8,685.5,84.8,685.5,110.7z"/><path d="M640.5,674.9h-93.8c0-93.4-1.1-159.1-119.7-248C280.2,316.9,267,217.2,266,206.2l93.4,0.1c0,0,11.3,61.2,123.9,145.5C628.6,460.6,640.5,552.8,640.5,674.9z"/><path d="M359.4,674.9h93.8c0-93.4,1.1-159.1,119.7-248c146.8-110,160-209.6,161.1-220.7l-93.4,0.1c0,0-11.3,61.2-123.9,145.5C371.4,460.6,359.4,552.8,359.4,674.9z"/><path d="M499.6,206.2h-46.9c0,68.5,46.9,93.5,46.9,93.5s46.9-24.9,46.9-93.5H499.6z"/><path d="M194.7,736.3h50.2v157.9c0,20.6-1.8,36.5-5.4,47.6c-4.9,14.5-13.7,26.2-26.5,34.9c-12.8,8.8-29.7,13.2-50.7,13.2c-22.2,0-45.1-19.9-45.1-19.9l24.1-34.3c0,0,11.6,11.2,22.7,11.2c11.2,0,19.2-3.2,23.8-9.6c4.6-6.4,7-19.7,7-39.9L194.7,736.3L194.7,736.3z"/><path d="M297.2,990V736.3h51.2V990H297.2z"/><path d="M401.2,989.5V736.3h107.6c27.1,0,46.7,2.3,59,6.8c12.2,4.5,22.1,12.6,29.4,24.3c7.4,11.6,11.1,24.9,11.1,39.9c0,19-5.6,34.7-16.8,47.1c-11.2,12.4-27.9,20.2-50.1,23.4c11,6.5,20.2,13.6,27.4,21.3c7.2,7.7,16.9,21.4,29.1,41.1l30.9,49.4h-61.1l-37-55.1c-13.1-19.7-22.1-32.1-26.9-37.2c-4.9-5.1-10-8.6-15.4-10.5c-5.4-1.9-14-2.8-25.7-2.8h-10.4v105.7H401.2z M452.3,843.4h37.8c24.5,0,39.9-1,45.9-3.1c6.1-2.1,10.9-5.7,14.4-10.7c3.5-5,5.2-11.4,5.2-19c0-8.5-2.3-15.4-6.8-20.6c-4.5-5.2-10.9-8.6-19.2-9.9c-4.1-0.6-16.6-0.8-37.3-0.8h-39.9L452.3,843.4L452.3,843.4z"/><path d="M882.9,989.5h-55.6L805.2,932H703.9L683,989.5h-54.2l98.6-253.2h54.1L882.9,989.5z M788.7,889.3l-34.9-93.9l-34.2,93.9H788.7z"/></g>
</svg>
